 <svg version="1.0" xmlns="http://www.w3.org/2000/svg"  width="300.000000pt" height="341.000000pt" viewBox="0 0 300.000000 341.000000"  preserveAspectRatio="xMidYMid meet">  <g transform="translate(0.000000,341.000000) scale(0.100000,-0.100000)" fill="#000000" stroke="none"> <path d="M18 3403 c-10 -2 -18 -8 -18 -13 0 -9 43 -5 110 10 31 7 29 8 -20 8 -30 0 -63 -2 -72 -5z"/> <path d="M150 3384 c-17 -15 -29 -29 -26 -32 3 -2 21 9 41 27 43 37 30 42 -15 5z"/> <path d="M212 3398 c-7 -7 -12 -17 -12 -23 0 -14 -57 -69 -88 -85 -13 -6 -22 -14 -19 -16 5 -5 110 18 141 31 38 16 5 -15 -47 -45 -70 -40 -42 -38 36 2 81 43 84 44 70 27 -19 -24 -62 -109 -54 -109 4 0 31 25 61 56 30 30 88 80 128 111 40 31 70 58 67 61 -2 3 -36 -21 -75 -52 -79 -64 -92 -62 -25 4 53 52 51 69 -2 19 -33 -32 -35 -30 -17 16 9 23 -24 19 -80 -10 -54 -28 -69 -26 -41 5 18 20 17 20 -6 20 -14 0 -30 -5 -37 -12z m123 -40 c-2 -34 -16 -59 -28 -51 -13 8 -54 15 -90 16 -28 0 -29 0 -9 19 16 17 23 18 41 8 18 -9 28 -8 54 9 18 11 32 21 32 21 1 0 0 -10 0 -22z m15 -61 c0 -2 -10 -12 -22 -23 l-23 -19 19 23 c18 21 26 27 26 19z"/> <path d="M470 3351 c-30 -31 -62 -70 -71 -86 -29 -56 -44 -80 -54 -88 -6 -5 -4 -7 5 -5 8 3 32 30 52 60 21 31 63 84 94 117 71 77 48 79 -26 2z"/> <path d="M609 3359 c-160 -110 -323 -271 -417 -411 -54 -79 -35 -65 30 23 103 139 243 269 437 407 25 18 40 32 35 32 -6 0 -44 -23 -85 -51z"/> <path d="M988 3351 c-32 -32 -58 -63 -58 -69 0 -7 -4 -12 -10 -12 -5 0 -10 -6 -10 -13 0 -7 -14 -32 -31 -55 -17 -23 -27 -42 -22 -42 4 0 3 -4 -3 -8 -14 -10 -86 -180 -117 -277 -41 -130 -55 -186 -61 -250 -5 -50 -2 -42 18 45 69 306 232 630 361 714 35 23 37 26 15 26 -17 0 -44 -20 -82 -59z"/> <path d="M1110 3406 c0 -2 7 -7 16 -10 8 -3 12 -2 9 4 -6 10 -25 14 -25 6z"/> <path d="M1175 3400 c3 -5 12 -7 20 -3 21 7 19 13 -6 13 -11 0 -18 -4 -14 -10z"/> <path d="M1490 3405 c0 -3 14 -33 31 -66 37 -74 81 -206 105 -319 14 -65 19 -127 19 -260 0 -154 -3 -185 -24 -260 -25 -90 -65 -187 -107 -258 -35 -59 -40 -48 -10 19 87 190 95 509 19 804 -24 91 -52 172 -53 152 0 -5 11 -47 25 -95 49 -174 59 -255 60 -462 0 -172 -3 -205 -23 -277 -19 -70 -38 -126 -48 -142 -2 -1 -18 9 -37 23 -32 24 -35 31 -41 99 -6 64 -33 188 -35 162 -1 -5 6 -48 14 -95 9 -47 18 -135 21 -197 l5 -111 -33 -32 c-32 -31 -32 -31 -4 -14 l28 18 -7 -45 c-19 -112 -86 -275 -144 -349 -15 -19 -31 -42 -35 -50 -9 -18 31 25 61 65 17 23 22 26 23 12 0 -10 7 -32 17 -50 14 -28 19 -47 25 -109 1 -9 6 -15 10 -12 4 2 6 -4 5 -14 -2 -28 62 -110 108 -138 28 -18 32 -23 15 -19 -55 15 -142 70 -197 124 -91 89 -127 172 -134 304 -2 26 -5 44 -8 42 -13 -14 15 -228 43 -320 4 -11 -7 7 -23 40 -35 71 -65 185 -59 220 3 14 1 25 -3 25 -5 0 -9 -20 -9 -44 0 -24 -2 -59 -5 -77 -4 -28 -3 -29 3 -9 8 22 10 19 26 -35 43 -146 153 -285 246 -310 14 -3 2 7 -27 24 -28 17 -64 48 -80 68 -15 21 -31 40 -36 41 -4 2 -4 9 -1 14 5 7 2 8 -6 3 -8 -5 -11 -3 -8 6 3 8 -1 31 -8 53 -8 21 -14 46 -13 55 0 13 1 14 6 1 14 -38 93 -126 149 -166 74 -53 130 -74 193 -73 67 1 101 17 37 18 -66 1 -127 38 -162 96 -14 25 -27 51 -28 60 -1 8 -5 18 -9 21 -10 11 -9 26 2 20 5 -4 11 -3 14 1 2 5 3 3 1 -3 -1 -7 4 -21 11 -32 8 -10 12 -22 9 -24 -15 -16 131 -98 173 -98 37 0 157 -47 177 -69 19 -21 32 -96 40 -226 3 -49 5 -91 6 -93 0 -2 5 0 11 3 5 4 8 19 5 33 -4 15 -11 83 -16 150 -11 137 -14 144 -95 178 -22 9 -54 23 -70 30 -36 15 -66 47 -89 91 -21 43 -21 44 12 27 29 -15 92 -19 92 -6 0 5 -11 15 -25 22 -14 7 -25 17 -25 21 0 12 -55 39 -80 39 -20 0 -28 -24 -11 -34 4 -3 11 -23 15 -45 4 -25 18 -53 40 -75 28 -30 30 -36 14 -36 -29 0 -79 25 -117 57 -31 27 -34 35 -38 95 -3 65 -3 66 27 78 33 14 135 119 153 157 6 15 19 23 34 23 13 0 22 4 19 9 -3 5 1 12 10 15 9 4 13 2 8 -5 -4 -8 1 -9 17 -4 21 7 22 6 10 -9 -18 -21 -17 -21 64 19 l70 35 -45 -7 c-25 -3 -52 -10 -60 -15 -11 -7 -10 -8 5 -3 15 5 17 3 8 -6 -6 -6 -20 -9 -30 -5 -17 7 -17 8 1 22 32 23 -6 18 -48 -7 l-35 -20 31 57 c29 52 32 55 45 39 7 -11 13 -16 13 -13 0 4 19 1 43 -7 23 -7 54 -16 70 -19 34 -8 35 -22 2 -30 -14 -4 -25 -10 -25 -15 0 -5 -12 -12 -28 -15 -28 -7 -95 -55 -77 -56 6 0 10 -17 9 -37 -1 -21 5 -48 13 -61 17 -27 5 -48 -30 -55 -12 -2 0 -5 27 -6 56 -1 55 -11 -1 -21 -37 -7 -38 -7 -11 -14 20 -6 32 -3 43 8 15 14 65 23 65 11 0 -2 -15 -9 -32 -15 -31 -9 -31 -10 -3 -4 17 3 50 9 75 13 39 6 42 7 20 13 -14 4 -51 10 -83 14 l-57 7 40 41 c22 22 43 49 46 59 3 9 10 17 15 17 5 0 9 4 9 9 0 6 12 30 28 55 18 31 36 47 55 51 43 10 44 -2 2 -19 -20 -9 -34 -20 -30 -25 3 -6 -1 -24 -10 -41 -8 -16 -11 -30 -6 -30 5 0 15 16 21 35 20 61 64 71 113 25 18 -16 35 -30 38 -30 3 0 9 -34 13 -77 7 -78 2 -92 -34 -93 -11 0 -11 3 -2 12 7 7 12 26 11 42 0 27 -2 28 -9 11 -7 -17 -9 -16 -9 10 -1 17 -6 37 -11 45 -6 10 -7 -2 -3 -37 5 -50 5 -52 -27 -72 -18 -10 -39 -17 -46 -14 -7 2 -23 -3 -36 -12 l-23 -17 25 5 c47 11 160 20 160 13 0 -13 -42 -91 -67 -124 -33 -44 -62 -55 -83 -30 -8 11 -47 27 -89 38 -58 15 -82 27 -113 57 -46 44 -83 112 -93 169 -11 58 -27 79 -20 24 9 -60 45 -137 85 -183 23 -27 27 -35 14 -31 -13 5 -16 4 -9 -3 8 -8 80 -32 185 -62 14 -4 32 -22 42 -42 15 -28 18 -30 18 -11 0 14 6 22 18 22 17 0 75 39 58 40 -4 0 3 15 17 33 31 41 61 129 61 177 0 32 -17 129 -31 174 -9 33 18 6 39 -38 18 -39 19 -39 14 -9 -3 18 -27 60 -55 93 -27 34 -58 85 -69 113 -12 29 -21 45 -21 36 -1 -23 25 -84 56 -130 26 -39 42 -122 19 -99 -6 6 -11 16 -11 23 0 7 -6 13 -12 13 -26 3 -28 5 -13 14 12 8 11 10 -6 10 -14 0 -31 14 -47 39 -22 33 -24 44 -17 77 13 59 23 190 15 182 -5 -4 -10 -31 -12 -60 -6 -93 -32 -196 -63 -260 -17 -35 -28 -54 -25 -43 3 10 9 38 12 62 4 30 10 43 22 43 9 0 12 3 6 8 -6 4 -10 81 -11 192 -1 122 -7 219 -18 285 -22 132 -47 247 -53 241 -3 -2 3 -42 13 -88 10 -48 17 -128 17 -188 0 -84 2 -93 6 -45 l7 60 7 -95 c11 -141 14 -220 10 -220 -8 0 -56 113 -69 163 -8 29 -15 90 -16 137 -2 76 -2 78 -5 20 -5 -111 -24 -209 -60 -309 -31 -87 -98 -229 -114 -241 -3 -3 -12 -16 -18 -28 -26 -50 -20 -12 8 52 31 69 61 199 61 267 0 37 1 38 26 29 33 -13 61 -13 48 -1 -5 5 -22 11 -39 13 -21 2 -29 8 -27 18 2 8 0 76 -4 150 l-9 135 -6 -210 c-4 -115 -9 -221 -12 -235 -4 -14 -12 -47 -18 -75 -15 -63 -26 -85 -53 -108 -18 -14 -18 -16 -2 -11 17 7 17 6 1 -27 l-18 -34 -9 25 c-8 21 -30 151 -42 250 -2 19 -3 -8 -1 -60 4 -81 26 -205 40 -219 3 -2 11 2 20 9 9 8 15 8 15 2 0 -12 -19 -26 -35 -27 -5 -1 -9 -6 -8 -11 2 -13 -64 -80 -72 -72 -3 2 1 18 9 34 24 48 41 123 31 133 -7 6 -10 -4 -10 -28 -1 -21 -12 -61 -26 -89 -16 -33 -22 -53 -15 -56 6 -2 3 -5 -6 -5 -13 -1 -18 7 -18 24 0 14 4 25 8 25 5 0 16 16 25 35 24 50 20 58 -4 12 -11 -22 -22 -37 -24 -35 -2 2 3 39 11 83 8 44 17 96 20 115 4 31 3 30 -10 -10 -26 -77 -39 -184 -34 -284 4 -108 -6 -105 -28 8 l-14 71 4 -65 c4 -60 3 -63 -11 -45 -10 14 -13 32 -9 60 9 62 17 141 12 130 -2 -5 -9 -36 -16 -67 -7 -32 -16 -58 -20 -58 -4 0 -12 16 -18 36 -9 31 -7 42 20 96 43 88 68 164 75 233 3 33 9 65 13 70 3 6 4 43 1 83 -4 39 -5 72 -3 72 2 0 17 -11 32 -24 l29 -23 -25 -36 c-28 -42 -29 -44 -9 -44 21 0 80 85 126 182 78 162 112 372 89 560 -13 112 -49 265 -84 359 -36 96 -86 189 -86 161z m350 -1291 c0 -2 -18 -7 -40 -10 -22 -4 -43 -11 -46 -15 -6 -11 1 -11 51 1 55 12 65 1 65 -75 0 -63 0 -63 -32 -67 -31 -5 -88 8 -122 28 -18 11 -18 12 2 57 19 42 40 112 57 182 7 29 7 29 36 -34 16 -35 29 -65 29 -67z m-369 63 c-10 -9 -11 -8 -5 6 3 10 9 15 12 12 3 -3 0 -11 -7 -18z m373 -324 c-10 -42 -40 -105 -64 -132 -18 -21 -23 -22 -31 -10 -14 22 -11 39 9 40 12 0 13 2 3 6 -8 3 -21 -3 -29 -13 -14 -18 -14 -18 -8 -1 3 10 6 31 6 47 0 24 5 29 38 38 36 10 36 10 7 11 -27 2 -25 4 20 20 28 10 51 19 53 20 1 0 0 -11 -4 -26z m-484 -254 c0 -6 -4 -7 -10 -4 -5 3 -10 11 -10 16 0 6 5 7 10 4 6 -3 10 -11 10 -16z m216 -10 c3 -5 1 -9 -5 -9 -17 0 -61 23 -61 31 0 10 58 -10 66 -22z"/> <path d="M1739 2033 c-5 -16 -12 -34 -14 -40 -4 -13 61 -8 115 8 24 7 24 7 -5 8 -17 1 -45 -3 -63 -8 -34 -10 -37 -6 -22 33 5 14 7 26 5 26 -3 0 -10 -12 -16 -27z"/> <path d="M1578 3368 c44 -64 81 -142 119 -248 20 -56 32 -79 28 -55 -10 58 -59 182 -100 249 -38 63 -41 71 -24 60 8 -4 8 0 0 15 -14 25 -22 28 -15 4 5 -17 5 -17 -9 0 -28 34 -27 16 1 -25z"/> <path d="M1804 3388 c33 -51 106 -254 130 -360 14 -62 28 -156 32 -208 4 -52 10 -86 14 -76 3 10 3 48 -1 84 -4 37 -6 68 -6 69 4 4 127 -14 132 -19 12 -12 -48 -112 -99 -166 -28 -30 -42 -50 -30 -44 34 18 92 88 123 149 46 92 64 195 59 331 -5 114 -32 262 -47 262 -5 0 0 -35 11 -77 11 -48 20 -127 23 -208 l4 -130 -10 107 c-11 127 -63 301 -91 306 -15 3 -15 -1 2 -47 l18 -51 -30 2 c-16 1 -32 6 -34 10 -3 4 -20 8 -38 8 -67 0 -97 12 -119 46 -12 19 -30 34 -40 34 -16 0 -16 -2 -3 -22z m224 -104 c67 -15 71 -18 77 -47 4 -18 9 -41 12 -51 4 -15 2 -18 -12 -12 -10 4 -52 11 -94 17 -106 14 -121 18 -121 30 0 5 -9 28 -20 51 l-19 41 53 -7 c29 -3 85 -13 124 -22z m17 -129 c70 -11 74 -24 65 -165 -5 -68 -7 -75 -25 -73 -11 1 -38 4 -59 6 l-40 4 -21 94 c-12 52 -26 107 -30 122 l-8 29 49 -7 c27 -4 58 -8 69 -10z"/> <path d="M2164 3378 c8 -18 19 -57 26 -85 7 -32 17 -53 26 -53 34 0 62 -25 82 -72 l21 -49 -32 7 c-51 11 -67 23 -67 52 0 15 -5 34 -11 42 -11 16 -12 21 12 -130 27 -176 -35 -422 -135 -535 -19 -22 -35 -35 -36 -29 0 6 7 17 15 24 22 18 63 97 80 153 25 86 16 87 -13 1 -15 -45 -40 -100 -56 -123 -30 -44 -95 -105 -102 -98 -3 2 0 24 5 48 14 59 14 99 1 79 -5 -8 -10 -28 -10 -45 -1 -62 -17 -61 -49 3 l-31 62 33 0 c107 0 230 130 257 272 13 68 6 73 -10 6 -7 -29 -22 -72 -33 -96 -39 -85 -148 -171 -218 -172 -26 0 -26 0 -17 53 12 64 4 328 -12 380 -17 59 -19 41 -4 -43 15 -84 19 -290 5 -290 -4 0 -12 -15 -18 -32 -9 -31 -11 -27 -53 99 -49 148 -67 174 -25 36 48 -158 83 -218 86 -150 1 16 3 17 6 5 2 -9 -1 -26 -7 -37 -8 -17 -5 -31 16 -73 15 -29 35 -65 46 -80 21 -31 17 -48 -12 -48 -10 0 -22 -5 -26 -12 -5 -7 -2 -9 7 -6 53 20 57 19 80 -14 39 -56 93 -118 102 -118 5 0 -9 21 -30 48 -22 26 -49 62 -62 79 l-22 33 28 25 c39 34 53 31 19 -4 -22 -22 -24 -29 -11 -28 12 2 29 -21 55 -73 21 -41 37 -77 35 -81 -5 -8 40 -50 89 -83 50 -33 29 -34 -38 0 -73 37 -112 67 -185 143 -34 36 -54 52 -43 35 30 -45 93 -107 144 -142 38 -26 48 -40 68 -101 13 -39 27 -66 31 -60 3 6 12 -18 18 -52 9 -46 22 -74 47 -103 47 -55 31 -61 -17 -7 -21 24 -39 38 -39 32 0 -6 18 -27 40 -47 38 -34 40 -39 40 -94 0 -60 21 -186 38 -231 9 -22 6 -38 -18 -87 -28 -60 -60 -92 -92 -92 -10 0 -18 -5 -18 -11 0 -6 7 -8 16 -5 9 3 20 6 25 6 17 0 88 71 88 88 0 9 10 51 21 92 18 64 21 94 17 210 -3 89 -10 153 -21 188 -22 69 -29 64 -10 -8 18 -71 18 -181 -1 -227 -19 -45 -19 -45 8 -38 20 5 20 5 4 -6 -29 -17 -43 3 -27 40 6 16 10 36 7 43 -3 7 -6 3 -6 -9 -1 -12 -6 -25 -13 -29 -8 -5 -9 2 -3 27 18 71 7 130 -41 229 -25 52 -52 116 -60 142 -8 26 -22 52 -32 57 -26 15 -9 13 33 -4 20 -9 46 -13 57 -9 12 4 18 2 14 -4 -6 -9 46 -22 95 -22 16 0 26 -6 26 -14 0 -23 67 -107 71 -89 2 9 -2 19 -8 23 -7 4 -9 13 -5 20 5 8 4 11 -2 7 -6 -4 -13 6 -15 23 -5 35 -2 40 28 40 13 0 25 4 29 9 3 6 -8 8 -28 4 -31 -5 -35 -2 -41 21 -3 14 -13 26 -21 26 -15 0 -19 -10 -16 -42 1 -10 -2 -18 -7 -18 -8 0 -16 31 -27 105 -3 21 -19 67 -35 100 -12 23 -14 35 20 -104 12 -46 19 -86 16 -89 -9 -9 -80 16 -117 41 -27 18 -142 181 -166 235 -3 7 13 32 34 55 22 24 52 64 68 90 31 55 75 178 75 213 0 30 15 30 95 1 l60 -22 6 -100 c5 -97 5 -102 -26 -170 -18 -38 -45 -82 -60 -97 -15 -16 -23 -28 -18 -28 19 0 73 67 96 120 27 61 57 182 57 229 0 36 -2 35 41 17 31 -13 37 -23 66 -108 42 -120 66 -217 59 -235 -3 -8 -2 -12 2 -9 14 8 36 -113 35 -184 -1 -43 -10 -92 -28 -140 -14 -41 -27 -83 -29 -92 -4 -29 -15 -32 -19 -7 -3 13 -13 67 -22 119 -22 119 -46 192 -97 295 -52 104 -69 121 -25 25 54 -119 49 -98 62 -240 7 -77 -6 -160 -26 -160 -5 0 7 -25 26 -56 43 -67 37 -77 -39 -71 -44 4 -48 3 -31 -9 24 -18 53 -18 89 1 16 9 31 13 33 11 2 -2 6 -57 7 -122 3 -90 8 -133 25 -179 11 -32 21 -73 21 -89 0 -23 3 -27 12 -18 9 9 7 28 -12 84 -20 59 -25 97 -26 198 -1 69 0 115 2 104 3 -12 20 -52 39 -90 28 -58 32 -86 10 -72 -7 5 -38 -43 -31 -49 3 -4 6 -1 6 5 0 6 12 18 28 26 49 25 55 6 57 -185 l1 -168 -24 -13 c-64 -34 -213 -247 -228 -325 -3 -17 -34 -66 -69 -110 -78 -97 -265 -280 -325 -318 -47 -29 -79 -64 -93 -99 -4 -11 8 -3 27 19 l35 40 -5 -45 c-3 -25 1 -98 10 -163 9 -65 14 -123 10 -130 -25 -43 -102 -129 -150 -169 -31 -27 -50 -48 -43 -48 8 0 61 48 117 106 78 79 102 111 99 126 -3 11 -1 18 5 16 6 -2 22 -39 36 -81 l24 -76 -26 -46 c-32 -53 -18 -59 29 -12 43 43 53 79 31 112 -9 14 -12 25 -7 25 15 0 28 -23 54 -95 18 -51 30 -71 44 -73 17 -3 22 6 32 60 13 68 113 374 138 423 22 43 98 123 165 173 59 45 101 92 134 152 10 19 26 41 35 47 28 21 88 119 111 180 12 32 26 63 33 68 24 21 97 120 116 156 31 62 21 69 -13 9 -28 -49 -75 -118 -101 -145 -9 -10 -8 -3 8 53 3 12 2 22 -3 22 -5 0 -12 -21 -16 -46 -7 -51 -80 -214 -114 -254 l-21 -25 21 65 c25 82 35 258 19 355 -6 39 -13 105 -15 148 l-4 79 32 -30 c43 -42 132 -82 184 -82 58 0 53 15 -6 16 -29 1 -66 11 -97 27 -55 27 -129 101 -146 143 -5 15 -12 24 -15 21 -3 -3 4 -23 15 -46 17 -32 21 -59 21 -135 0 -52 4 -97 9 -100 15 -10 23 -187 12 -277 -6 -48 -20 -112 -30 -142 -19 -55 -70 -151 -77 -144 -2 1 11 39 28 83 25 64 30 91 28 139 -5 97 -4 158 3 195 4 19 -3 6 -16 -30 -28 -75 -80 -181 -111 -225 -11 -16 -20 -31 -19 -32 13 -13 -229 -193 -259 -193 -18 0 -5 17 32 40 22 13 50 39 62 56 12 18 26 30 30 28 5 -3 8 -2 7 3 -1 4 11 37 28 73 17 36 31 72 31 80 9 154 17 190 55 242 22 29 54 64 73 78 83 60 77 45 64 144 -11 79 -9 151 6 211 3 14 -7 36 -30 65 -20 25 -36 50 -36 55 0 6 -8 26 -18 45 -9 19 -23 53 -31 76 -13 40 -13 42 23 91 63 88 112 253 118 395 3 102 -8 91 -15 -14 -7 -100 -33 -214 -67 -291 -29 -65 -35 -55 -8 14 18 45 22 78 24 194 1 91 -1 122 -5 90 -6 -36 -8 -41 -9 -20 -5 88 -85 340 -148 467 -31 61 -50 118 -63 185 -11 54 -29 123 -40 153 -25 70 -27 54 -2 -25 10 -33 27 -109 36 -169 16 -95 16 -122 6 -201 -15 -118 -32 -176 -24 -85 9 110 -50 402 -107 525 -15 33 -42 90 -58 128 -26 57 -35 67 -56 67 -24 0 -25 -1 -12 -32z m134 -290 c13 -16 42 -126 51 -194 6 -45 5 -51 -8 -43 -9 5 -32 12 -51 17 l-35 8 -3 112 c-2 105 -1 112 16 112 11 0 24 -6 30 -12z m200 -858 c19 -95 23 -163 13 -210 -8 -41 -9 -37 -10 46 -1 79 -11 163 -27 229 -4 16 -3 17 4 5 6 -8 15 -40 20 -70z m-109 -40 c0 -10 -3 -8 -9 5 -12 27 -12 43 0 25 5 -8 9 -22 9 -30z m202 -177 c-12 -20 -14 -14 -5 12 4 9 9 14 11 11 3 -2 0 -13 -6 -23z m-64 -45 c-3 -8 -6 -5 -6 6 -1 11 2 17 5 13 3 -3 4 -12 1 -19z m-215 -290 c-5 -8 -6 -22 -1 -33 4 -11 8 -27 8 -35 0 -8 -6 1 -13 20 -14 36 -11 60 6 60 7 0 7 -4 0 -12z m168 -608 c-13 -31 -60 -80 -60 -62 0 6 15 41 33 78 28 58 32 63 35 39 2 -15 -2 -40 -8 -55z m194 -170 c-24 -81 -49 -126 -86 -148 -18 -12 -55 -45 -83 -74 -50 -52 -24 -34 58 41 23 22 37 30 37 21 0 -10 8 -6 20 10 11 14 20 20 20 14 0 -14 -35 -46 -43 -38 -3 3 -10 -4 -16 -15 -6 -11 -31 -35 -54 -53 -64 -49 -227 -241 -227 -266 0 -20 -56 -103 -64 -95 -4 4 -4 -1 0 -11 5 -13 4 -17 -4 -12 -8 5 -10 1 -5 -10 5 -13 3 -15 -7 -9 -8 5 -11 4 -7 -2 3 -5 -4 -39 -16 -74 l-23 -65 -15 31 c-15 28 -14 34 7 87 12 31 50 97 83 146 60 88 173 224 192 230 5 2 9 11 9 20 0 10 50 118 112 242 l113 225 7 -70 c6 -53 4 -84 -8 -125z m-228 53 c-17 -56 -40 -94 -79 -131 l-34 -33 -5 26 c-4 19 2 36 21 58 14 18 29 34 34 35 4 2 7 8 7 14 0 11 50 66 61 67 4 1 2 -16 -5 -36z m-150 -173 c-10 -65 -24 -80 -76 -82 -44 -1 -45 -1 -7 -5 l38 -4 -47 -42 c-26 -23 -64 -54 -86 -69 -33 -25 -38 -26 -38 -10 0 30 54 103 133 180 41 40 78 72 82 72 4 0 5 -18 1 -40z m180 -18 c-2 -4 -17 -37 -34 -74 -29 -63 -85 -138 -103 -138 -8 0 -16 36 -22 100 -3 34 15 66 31 56 5 -3 33 12 63 34 47 33 78 44 65 22z m-171 -227 c6 -38 3 -46 -61 -140 -37 -55 -78 -124 -92 -153 -22 -49 -26 -53 -55 -50 -27 3 -33 8 -35 32 -2 18 -11 30 -23 33 -21 6 -26 28 -37 156 l-8 87 62 29 c78 37 213 127 222 149 4 10 9 -6 13 -43 4 -33 10 -78 14 -100z m-260 26 c-3 -6 -11 -11 -17 -11 -6 0 -6 6 2 15 14 17 26 13 15 -4z m202 -394 c-23 -81 -33 -103 -40 -91 -7 12 -4 36 8 73 16 52 55 134 61 128 2 -1 -11 -51 -29 -110z"/> <path d="M2250 330 c-6 -11 -8 -20 -6 -20 3 0 10 9 16 20 6 11 8 20 6 20 -3 0 -10 -9 -16 -20z"/> <path d="M2590 3406 c0 -3 30 -47 68 -98 62 -87 109 -161 276 -436 l63 -102 -2 47 c-2 57 -13 101 -32 128 -14 19 -15 19 -8 -5 4 -14 10 -31 13 -39 3 -9 1 -12 -6 -7 -17 10 -15 -7 4 -30 14 -18 15 -18 8 6 -3 14 -3 22 1 18 4 -4 9 -24 11 -45 l3 -38 -25 40 c-13 22 -22 46 -19 54 3 7 -11 42 -30 77 -38 68 -38 76 2 44 14 -11 30 -20 36 -20 5 0 -7 13 -27 29 -21 17 -56 52 -78 80 -23 28 -43 49 -45 47 -6 -6 48 -90 64 -99 7 -5 11 -12 8 -17 -3 -4 11 -36 30 -70 20 -35 34 -65 31 -67 -2 -2 -16 18 -31 44 -122 209 -315 491 -315 459z"/> <path d="M2651 3368 c16 -24 44 -51 60 -61 16 -11 29 -24 29 -29 0 -6 -7 -5 -17 2 -10 7 11 -16 47 -51 36 -35 77 -78 92 -96 30 -35 96 -73 125 -72 10 0 0 7 -22 15 -37 13 -95 59 -95 74 0 4 19 3 43 -3 69 -16 74 -20 37 -27 l-35 -7 43 -2 c36 -1 42 2 42 19 0 11 -3 20 -7 20 -5 0 -34 4 -65 10 -59 9 -130 51 -125 73 1 6 -4 12 -10 13 -7 1 -16 3 -20 4 -5 1 -12 2 -16 1 -5 -1 -5 4 -1 10 5 8 3 10 -7 4 -10 -6 -11 -5 -4 3 7 8 29 4 78 -13 79 -29 120 -33 62 -6 -40 19 -108 81 -88 81 6 0 16 -7 23 -15 7 -9 19 -14 27 -11 7 3 39 -1 70 -9 32 -8 63 -15 70 -15 14 0 19 29 6 31 -36 3 -82 13 -105 24 -10 4 -25 4 -34 1 -8 -3 -25 -1 -37 5 -17 10 -24 8 -38 -10 -9 -11 -22 -21 -27 -21 -12 0 -92 79 -92 91 0 5 -9 9 -20 9 -18 0 -18 -3 11 -42z"/> <path d="M2862 3393 c12 -15 44 -17 52 -4 3 5 -10 11 -29 13 -27 3 -32 1 -23 -9z"/> <path d="M639 3326 c-93 -70 -179 -164 -242 -263 -39 -62 -56 -80 -42 -45 16 43 -19 -12 -60 -92 -38 -75 -54 -96 -129 -162 -47 -41 -93 -86 -102 -99 -9 -14 -21 -25 -26 -25 -6 0 1 15 14 33 35 47 93 152 79 143 -6 -4 -26 -32 -43 -63 -17 -30 -44 -64 -59 -76 -23 -16 -29 -29 -29 -56 l0 -36 87 85 c128 124 274 244 391 322 57 37 99 68 93 68 -7 0 -42 -20 -79 -45 -37 -25 -72 -45 -79 -45 -7 0 -13 -6 -14 -12 0 -7 -3 -5 -7 4 -5 13 -11 15 -22 8 -10 -7 -11 -10 -2 -10 6 0 12 -8 12 -17 0 -15 -2 -15 -9 -4 -8 12 -10 12 -14 0 -2 -8 -3 -6 -2 4 2 9 -3 17 -11 17 -8 0 -14 5 -14 11 0 5 5 7 11 3 6 -3 15 -1 19 7 5 7 16 14 25 15 33 5 47 14 41 29 -3 8 -2 15 2 15 4 0 16 21 26 48 11 26 22 49 26 52 3 3 16 22 28 42 24 38 102 110 185 168 26 18 47 35 47 37 0 11 -25 -4 -101 -61z m-209 -260 c0 -18 -19 -31 -28 -21 -4 4 -1 10 6 12 6 3 10 9 6 14 -3 5 0 9 5 9 6 0 11 -6 11 -14z m-35 -46 c3 -5 1 -10 -4 -10 -6 0 -11 5 -11 10 0 6 2 10 4 10 3 0 8 -4 11 -10z m-56 -93 c0 -21 -1 -21 -8 -2 -7 18 -9 16 -15 -12 -4 -17 -14 -37 -22 -44 -19 -15 -18 -10 6 46 20 46 41 53 39 12z"/> <path d="M1083 3256 c-183 -135 -304 -310 -351 -506 -34 -143 -34 -146 -22 -134 10 10 13 19 26 94 4 19 9 39 12 45 3 5 7 22 9 38 3 28 26 80 73 162 30 54 56 87 116 151 28 30 49 54 46 54 -3 0 8 10 24 22 16 13 38 31 48 40 11 10 25 18 32 18 7 0 14 6 17 13 2 6 7 9 11 6 4 -4 -17 -55 -47 -115 -29 -60 -67 -144 -83 -186 -16 -43 -33 -78 -39 -78 -6 0 -31 -21 -55 -47 l-45 -47 47 42 c26 23 50 42 54 42 6 0 -75 -94 -186 -214 -79 -85 -151 -175 -189 -238 -18 -30 -29 -38 -54 -39 -31 -2 -31 -2 -5 -6 33 -5 33 -3 9 -45 -26 -44 -84 -189 -78 -195 3 -2 8 6 12 19 22 70 99 218 114 218 20 0 130 -26 136 -32 3 -3 -22 -54 -55 -114 -33 -60 -60 -116 -60 -124 0 -20 -15 -3 -40 45 -12 24 -18 30 -14 15 3 -14 14 -39 24 -56 16 -29 16 -32 0 -65 -22 -43 -36 -91 -21 -69 9 13 11 12 11 -4 0 -16 -6 -18 -57 -14 -32 3 -67 8 -78 12 -11 3 -2 -3 20 -13 47 -23 77 -34 89 -32 5 1 6 -4 4 -11 -3 -7 -16 -41 -28 -76 -13 -34 -24 -61 -26 -59 -2 2 5 30 16 62 11 32 18 60 16 63 -3 2 -12 -21 -22 -52 -10 -31 -21 -56 -26 -56 -32 0 -78 168 -78 285 0 250 99 525 271 748 11 15 17 27 11 27 -5 0 -34 -35 -64 -77 -80 -112 -136 -227 -185 -383 -15 -48 -21 -60 -18 -35 11 70 84 277 131 368 25 49 40 85 33 81 -16 -9 -101 -193 -127 -274 -39 -118 -63 -238 -57 -278 5 -29 4 -34 -5 -22 -20 26 -4 -258 18 -325 11 -30 17 -55 16 -55 -13 0 -88 175 -104 243 -22 93 -27 257 -9 351 6 32 8 60 6 63 -13 12 -30 -124 -29 -232 1 -184 43 -319 140 -447 31 -41 47 -70 42 -79 -13 -24 -51 -180 -48 -191 2 -6 16 35 31 92 15 57 29 105 31 107 2 2 19 -5 37 -16 19 -12 41 -21 49 -21 8 1 -2 10 -23 21 -32 17 -37 24 -31 42 11 35 31 72 48 86 8 7 12 19 9 27 -3 8 1 14 10 14 8 0 17 -6 19 -12 3 -7 7 -2 10 10 6 20 3 22 -28 20 -18 -1 -36 1 -40 5 -4 4 4 7 17 7 19 0 24 5 24 24 0 13 -4 22 -9 18 -6 -3 -6 3 -2 14 5 10 13 32 18 47 10 26 11 27 24 10 7 -10 14 -13 14 -8 0 6 -5 16 -11 22 -7 7 -2 27 20 69 34 66 38 63 15 -11 -22 -73 -29 -227 -15 -325 15 -97 39 -167 81 -234 17 -27 29 -50 27 -53 -3 -2 -21 15 -41 38 -20 24 -36 38 -36 33 0 -6 5 -15 10 -20 9 -9 22 -174 15 -174 -6 0 -35 138 -39 181 -2 25 -9 55 -15 66 -6 11 -20 51 -31 89 -16 54 -19 60 -14 25 4 -24 13 -59 20 -78 13 -31 12 -40 -13 -116 -23 -69 -27 -101 -29 -207 -1 -101 -5 -126 -17 -134 -18 -12 -22 -9 -31 22 -9 27 17 31 34 5 10 -15 10 -14 4 7 -13 45 -6 263 10 345 18 89 20 122 5 86 -11 -28 -41 -196 -41 -228 0 -13 -4 -21 -8 -18 -5 3 -6 -4 -3 -15 3 -11 1 -20 -5 -20 -25 0 -49 -272 -25 -289 4 -3 9 -13 11 -21 2 -8 8 -21 13 -30 9 -12 9 -12 5 4 -4 10 -1 26 6 34 8 10 9 13 2 9 -7 -4 -14 0 -18 8 -3 8 0 17 6 21 7 4 8 3 4 -4 -4 -7 -3 -12 2 -12 12 0 39 40 44 65 2 14 9 6 21 -28 18 -45 18 -49 2 -92 -10 -25 -24 -50 -31 -56 -8 -6 -14 -17 -14 -24 0 -6 -9 -20 -20 -30 -19 -17 -19 -17 -7 14 6 17 14 31 17 31 3 0 7 12 8 28 1 15 7 42 13 60 6 18 9 35 6 38 -5 5 -38 -88 -57 -159 -7 -27 -20 -51 -27 -54 -11 -5 -12 -8 -2 -14 7 -4 -6 -10 -35 -14 -26 -4 -49 -6 -51 -3 -2 2 18 36 46 76 27 39 50 74 49 77 -1 16 1 16 17 4 9 -8 14 -9 12 -4 -3 6 -18 37 -34 70 -29 59 -29 63 -29 237 -1 183 -13 199 -20 28 -3 -69 -2 -82 4 -50 l8 45 -2 -43 c0 -23 -5 -43 -10 -43 -14 -1 -55 107 -67 180 -12 68 -7 199 10 243 13 35 23 125 12 113 -4 -6 -16 -53 -26 -105 -14 -73 -16 -122 -12 -214 7 -126 -4 -201 -44 -323 l-20 -62 -50 3 c-55 4 -107 37 -141 90 l-20 31 6 -40 5 -40 -14 30 c-15 33 -19 66 -7 63 14 -3 42 14 36 23 -3 5 -14 4 -25 -2 -25 -13 -27 -12 -31 25 -2 19 2 30 12 33 13 4 13 3 0 -7 -12 -9 -10 -10 10 -4 14 4 31 9 39 12 11 4 13 -1 9 -23 -4 -21 -1 -29 13 -32 10 -3 17 -8 15 -12 -7 -11 33 -93 56 -118 35 -37 41 -26 10 15 -29 37 -52 90 -52 121 0 9 9 22 21 29 18 11 25 8 66 -28 25 -22 53 -40 62 -40 10 0 5 9 -16 27 -17 16 -38 41 -46 58 -14 28 -13 31 25 88 44 64 68 117 68 144 -1 10 -12 -9 -26 -42 -13 -33 -42 -84 -64 -112 -22 -29 -36 -53 -31 -53 4 0 13 -12 20 -27 l11 -28 -19 23 c-12 13 -25 20 -35 16 -21 -8 -20 5 1 29 10 11 12 17 6 13 -7 -4 -13 -2 -13 3 0 6 6 11 14 11 13 0 92 117 84 125 -2 3 -23 -22 -46 -55 -42 -59 -104 -110 -152 -125 -18 -6 -9 6 33 45 106 97 178 289 175 464 l-1 91 -7 -100 c-7 -100 -31 -223 -50 -254 -8 -12 -8 -8 -3 14 5 17 7 89 7 160 -2 114 -6 147 -37 265 -40 152 -50 145 -13 -9 37 -152 41 -202 21 -242 -13 -25 -19 -67 -23 -166 -3 -89 -9 -136 -17 -143 -24 -20 -28 76 -6 165 22 91 20 114 -3 34 -18 -64 -35 -168 -37 -224 l-1 -40 -8 39 c-13 70 8 260 39 352 9 29 14 51 10 48 -31 -19 -75 -272 -67 -384 5 -67 4 -71 -21 -89 -14 -10 -37 -22 -50 -26 -13 -4 -19 -10 -14 -14 5 -3 17 -36 26 -73 24 -94 61 -175 81 -175 20 0 20 0 -4 47 -24 47 -27 74 -4 42 21 -31 86 -62 129 -62 19 0 35 -3 35 -6 0 -12 -53 -104 -61 -104 -4 0 -22 17 -40 37 -30 34 -59 51 -59 34 0 -10 51 -56 78 -70 l23 -12 -41 -52 c-62 -78 -128 -145 -150 -152 -21 -7 -27 -30 -10 -40 6 -3 10 -1 10 4 0 6 6 11 13 11 6 -1 2 -9 -11 -19 -12 -11 -22 -27 -22 -36 0 -13 11 -8 47 21 26 22 41 30 33 19 -50 -69 -64 -84 -70 -75 -4 6 -7 -3 -7 -20 0 -16 1 -30 2 -30 2 0 29 39 61 88 32 48 78 109 102 136 24 28 52 67 63 88 14 28 26 38 44 38 13 0 27 5 31 11 4 8 -1 9 -16 4 -19 -6 -15 3 24 54 26 33 44 61 39 61 -4 0 -24 -21 -43 -46 -19 -25 -40 -52 -47 -61 -6 -8 -16 -12 -22 -8 -18 11 44 122 72 129 14 3 39 22 56 41 47 54 37 59 -14 7 -25 -25 -48 -42 -51 -39 -3 3 3 34 14 69 11 34 25 94 32 132 l13 68 12 -35 c7 -19 22 -52 34 -73 22 -36 31 -120 16 -143 -3 -6 0 -11 7 -11 16 0 48 -54 39 -67 -7 -11 -52 -12 -45 -1 3 4 13 8 22 8 13 1 11 5 -8 16 -14 8 -17 13 -7 10 19 -6 24 9 6 20 -13 8 -31 -16 -24 -33 2 -7 -2 -27 -9 -45 -12 -29 -12 -35 1 -47 13 -12 14 -11 9 5 -3 10 -2 24 2 31 10 15 30 21 31 8 1 -5 -4 -10 -11 -10 -6 0 -13 -6 -16 -14 -3 -8 0 -11 7 -7 8 5 8 -1 -1 -20 -11 -23 -14 -24 -23 -10 -8 13 -13 8 -26 -31 -15 -43 -19 -48 -45 -46 -25 2 -26 1 -10 -9 10 -5 47 -8 81 -6 55 3 62 2 55 -12 -22 -41 -108 -149 -176 -220 -67 -70 -81 -80 -127 -90 -59 -12 -148 -58 -155 -79 -3 -10 4 -7 22 7 26 20 125 62 147 62 10 0 -11 -19 -124 -114 -26 -22 -47 -44 -47 -49 0 -13 166 131 277 241 55 55 129 139 163 186 36 50 75 93 93 102 18 9 42 25 54 36 13 12 27 17 35 12 7 -4 10 -4 6 0 -4 5 11 31 33 59 48 60 82 124 76 140 -3 7 -8 4 -13 -8 -10 -26 -67 -112 -98 -150 -23 -27 -27 -28 -41 -14 -14 14 -13 20 6 67 22 52 22 52 43 35 21 -18 21 -18 2 4 -17 21 -17 25 -3 55 34 75 51 166 37 203 -4 12 -9 -8 -13 -55 -3 -41 -10 -86 -16 -100 -9 -22 -10 -20 -10 20 1 62 -18 184 -35 224 -12 30 -12 38 6 77 l19 44 30 -91 c16 -50 42 -111 59 -135 24 -36 30 -55 30 -100 0 -118 76 -319 139 -372 l27 -22 -141 -46 c-138 -46 -285 -107 -285 -118 0 -4 12 -19 26 -35 27 -28 27 -28 9 -60 -48 -83 -213 -301 -222 -293 -2 3 18 34 45 69 64 83 175 248 169 254 -2 2 -27 -31 -55 -75 -29 -43 -89 -127 -133 -187 -45 -60 -70 -98 -55 -85 14 14 26 20 26 14 0 -16 -46 -54 -55 -46 -4 5 -5 3 -1 -4 6 -12 -62 -98 -71 -89 -2 2 8 23 22 46 30 48 113 216 165 333 28 64 42 84 78 109 24 16 41 32 38 35 -9 9 -98 -62 -107 -86 -6 -15 -15 -21 -24 -17 -11 4 -164 -96 -243 -160 -2 -1 20 -41 48 -87 45 -74 50 -88 40 -107 -10 -19 -16 -13 -62 79 l-50 101 -34 -28 c-19 -15 -34 -33 -34 -39 0 -17 15 -16 30 2 7 8 16 15 21 15 11 0 89 -141 89 -160 -1 -15 -27 -54 -84 -125 -16 -19 -26 -39 -22 -42 9 -9 86 66 97 95 5 13 13 21 18 18 5 -3 42 29 82 72 104 112 203 241 306 401 3 4 213 -187 214 -196 1 -3 -23 -21 -52 -40 -29 -18 -50 -33 -46 -33 15 0 83 39 96 54 11 13 21 8 79 -36 37 -29 69 -53 71 -55 3 -2 -5 -13 -16 -26 -25 -27 -163 -238 -163 -249 0 -4 12 -8 26 -8 30 0 94 63 176 172 l50 67 51 -23 c29 -13 65 -29 80 -36 l28 -14 -63 -59 c-35 -32 -44 -43 -20 -23 57 49 65 45 16 -6 -64 -68 -70 -78 -48 -77 11 0 40 27 69 64 28 35 56 64 63 65 14 0 16 -16 2 -25 -6 -3 -10 -14 -10 -23 0 -9 -7 -29 -14 -44 -10 -18 -11 -30 -4 -34 14 -9 23 4 47 70 l22 60 -23 18 c-13 10 -70 42 -128 72 -152 78 -342 227 -503 394 l-49 49 109 46 c59 25 162 62 228 82 66 20 176 56 245 80 l125 43 65 -51 c36 -28 98 -79 138 -114 78 -68 107 -76 160 -49 l27 14 0 -187 c0 -179 -1 -187 -24 -219 -13 -18 -25 -31 -27 -29 -2 2 7 32 22 66 14 35 23 68 22 73 -2 6 -25 -38 -50 -98 -25 -60 -66 -156 -92 -213 -25 -57 -44 -106 -42 -109 3 -2 27 43 53 100 32 66 66 120 96 152 32 35 48 61 53 90 7 37 9 30 25 -79 26 -178 25 -193 -13 -232 -18 -18 -27 -33 -21 -33 6 0 21 12 32 26 l21 27 0 -27 c0 -14 5 -26 10 -26 19 0 13 66 -40 425 -15 102 -20 169 -15 211 8 76 54 182 134 312 33 54 61 105 61 112 0 19 -109 -159 -161 -261 -23 -46 -37 -62 -65 -74 -67 -28 -81 -22 -217 88 -70 56 -170 133 -222 171 -197 144 -244 200 -314 375 -22 57 -41 105 -41 107 0 3 18 -5 40 -16 21 -11 50 -20 62 -19 17 1 13 4 -13 11 -55 14 -111 80 -142 165 -24 66 -25 78 -15 128 10 50 28 67 28 27 0 -25 21 -95 26 -89 3 3 -4 40 -15 83 -20 81 -32 234 -18 234 4 0 4 12 1 26 -6 24 -5 26 16 19 15 -5 20 -4 16 4 -4 6 -14 11 -22 11 -8 0 -14 9 -14 20 0 26 36 188 50 224 10 26 10 26 41 11 17 -9 33 -14 36 -11 3 3 -11 13 -30 22 l-36 17 20 40 c11 21 19 41 16 43 -2 2 -12 -14 -23 -36 -10 -22 -26 -40 -33 -40 -11 0 -12 -3 -5 -10 8 -8 6 -28 -7 -66 -21 -63 -37 -149 -41 -211 -2 -47 -5 -49 -43 -31 -29 13 -30 24 -10 102 8 32 13 61 10 66 -3 5 29 69 71 142 42 73 79 138 81 143 12 27 -39 -45 -59 -83 -18 -34 -27 -42 -43 -37 -11 3 -48 11 -82 17 l-61 12 51 75 c61 87 237 276 280 297 27 15 28 14 23 -4 -17 -54 -38 -191 -46 -307 -7 -106 -15 -150 -44 -239 -20 -60 -36 -116 -37 -125 -1 -9 -5 -5 -10 9 -6 18 -7 14 -3 -17 3 -24 2 -43 -3 -43 -12 0 -19 -94 -16 -228 2 -128 29 -226 74 -271 17 -17 36 -31 42 -31 7 0 -2 11 -19 25 -30 23 -64 88 -64 121 0 11 6 13 20 9 11 -4 20 -2 20 4 0 6 7 7 17 4 11 -5 14 -3 9 6 -5 7 -17 10 -28 8 -11 -3 -27 2 -39 14 -16 16 -19 34 -19 122 0 93 2 103 19 104 16 1 20 -8 25 -66 7 -69 40 -156 69 -180 24 -19 21 -8 -8 35 -27 39 -41 84 -48 150 l-5 41 62 -11 c34 -7 79 -24 101 -39 l40 -27 8 22 c6 18 1 28 -26 53 -28 25 -57 71 -57 91 0 3 11 -3 25 -13 13 -10 25 -28 25 -40 0 -12 5 -25 10 -28 11 -7 8 23 -5 66 -15 47 -33 251 -30 334 2 50 8 205 14 345 5 140 12 264 16 275 5 17 5 17 -4 4 -18 -28 -32 -159 -31 -284 1 -66 2 -124 2 -130 1 -51 -16 -295 -20 -295 -3 0 -14 7 -24 17 -11 9 -18 11 -18 5 0 -7 3 -12 8 -12 28 -2 42 -32 51 -112 5 -46 13 -97 17 -112 7 -28 7 -28 -18 -12 -30 20 -49 82 -74 236 -31 197 6 471 92 695 56 144 124 283 170 348 58 80 46 78 -83 -17z m-686 -978 c-3 -7 -5 -2 -5 12 0 14 2 19 5 13 2 -7 2 -19 0 -25z m522 -203 c14 -51 14 -60 -1 -48 -7 5 -34 17 -60 27 -27 10 -48 21 -48 26 0 12 25 79 51 135 l23 50 12 -75 c6 -41 17 -93 23 -115z m6 -65 c13 -5 25 -25 34 -56 8 -27 19 -55 25 -63 9 -12 7 -13 -7 -8 -10 4 -23 7 -28 7 -6 0 -8 4 -5 9 4 5 -13 12 -35 16 -30 5 -38 10 -28 16 9 6 -8 8 -46 5 -42 -3 -51 -2 -30 3 19 6 23 9 11 10 -11 0 -17 4 -13 7 3 3 31 0 62 -6 54 -11 88 -7 49 6 -10 3 -43 16 -72 27 -42 17 -49 23 -35 28 10 4 12 8 6 8 -7 1 -13 10 -13 21 0 20 0 20 53 -1 28 -12 61 -25 72 -29z m-245 -25 c0 -5 5 -3 10 5 8 12 10 12 10 -5 0 -15 -7 -20 -27 -22 -20 -1 -23 1 -12 9 10 7 8 9 -8 5 -19 -4 -23 -1 -23 18 0 21 2 22 25 12 14 -7 25 -16 25 -22z m-25 -31 c9 -4 12 -10 7 -13 -5 -3 -6 -15 -1 -26 8 -19 8 -19 15 3 23 78 41 -49 20 -142 -9 -37 -16 -82 -17 -99 0 -31 -1 -31 -14 10 -9 31 -10 55 -4 84 8 33 6 47 -6 66 -23 35 -12 39 19 8 35 -35 33 -16 -3 26 -16 18 -28 37 -25 40 2 4 0 10 -6 14 -10 6 -15 35 -6 35 2 0 12 -3 21 -6z m369 -89 c3 -8 1 -15 -3 -15 -5 0 -11 7 -15 15 -3 8 -1 15 3 15 5 0 11 -7 15 -15z m-268 -399 c23 -77 92 -238 117 -274 31 -42 31 -43 19 -110 -6 -36 -9 -68 -7 -70 2 -2 11 21 21 52 10 31 21 56 24 56 4 0 15 -10 26 -21 10 -12 43 -39 72 -61 50 -37 52 -41 53 -86 0 -26 3 -42 5 -35 3 7 12 9 21 6 13 -5 14 -3 3 17 -8 15 -8 20 -1 16 6 -4 11 -2 11 4 0 6 11 3 24 -7 29 -21 26 -25 -38 -46 l-49 -17 7 53 6 52 -20 -60 c-17 -54 -24 -62 -55 -74 -29 -10 -39 -10 -51 0 -44 36 -103 182 -124 307 -13 81 -26 99 -16 23 16 -125 60 -249 113 -318 34 -46 5 -44 -36 2 -63 72 -112 201 -126 333 -7 63 -7 64 14 53 27 -15 27 0 0 17 -19 12 -21 20 -15 80 3 41 2 59 -3 47 -8 -19 -9 -19 -14 5 -3 14 -3 -2 0 -34 6 -63 -9 -73 -22 -15 -4 18 -10 27 -14 21 -3 -5 -7 26 -8 69 l-3 80 30 -23 c16 -12 33 -31 36 -42z m-616 -40 c-7 -7 -10 1 -9 25 0 32 1 33 10 10 6 -16 6 -28 -1 -35z m470 -161 c1 -33 1 -76 0 -95 l-1 -35 -15 35 c-17 40 -31 219 -19 247 11 25 33 -71 35 -152z m-453 78 c-15 -16 -17 -16 -17 -1 0 9 6 18 13 21 20 7 22 -2 4 -20z m383 -45 c0 -11 -38 -10 -44 1 -4 5 4 7 16 4 18 -4 20 -2 9 5 -8 6 -16 19 -17 29 -2 14 1 13 16 -7 11 -14 20 -28 20 -32z m-387 24 c20 10 21 10 8 -6 -19 -23 -57 -44 -45 -24 5 7 8 22 7 33 -1 16 -1 16 3 3 5 -15 9 -16 27 -6z m357 -51 c0 -6 -4 -12 -8 -15 -5 -3 -9 1 -9 9 0 8 4 15 9 15 4 0 8 -4 8 -9z m3 -50 c3 -12 -1 -22 -10 -25 -8 -3 -11 -1 -8 4 3 6 0 10 -7 11 -10 0 -10 2 0 6 6 2 10 9 6 14 -3 5 -1 9 4 9 5 0 12 -9 15 -19z m27 -31 c-8 -5 -19 -10 -25 -10 -5 0 -3 5 5 10 8 5 20 10 25 10 6 0 3 -5 -5 -10z m-43 -42 c-3 -7 -5 -2 -5 12 0 14 2 19 5 13 2 -7 2 -19 0 -25z m47 19 c-3 -8 -11 -14 -19 -14 -21 0 -19 15 3 20 9 3 18 5 19 6 1 0 0 -5 -3 -12z m-444 -52 c0 -5 -5 -3 -10 5 -5 8 -10 20 -10 25 0 6 5 3 10 -5 5 -8 10 -19 10 -25z m1005 -135 c3 -5 1 -10 -4 -10 -6 0 -11 5 -11 10 0 6 2 10 4 10 3 0 8 -4 11 -10z m-527 -9 c14 -9 -11 -32 -68 -61 -22 -12 -21 -9 10 28 39 45 39 45 58 33z m-338 -9 c0 -11 -133 -143 -138 -137 -2 2 12 19 31 39 19 19 47 51 62 70 26 34 45 46 45 28z m66 -474 c-53 -124 -71 -164 -76 -168 -4 -3 -9 -13 -13 -22 -3 -10 -11 -18 -17 -18 -9 0 -55 65 -66 94 -3 7 22 31 58 56 35 24 68 48 73 54 9 9 45 34 53 35 1 1 -4 -14 -12 -31z m616 -266 c-27 -44 -125 -162 -134 -162 -12 0 -11 3 15 37 12 17 29 41 37 53 51 76 72 100 85 100 12 0 12 -4 -3 -28z"/> <path d="M837 1999 c7 -7 15 -10 18 -7 3 3 -2 9 -12 12 -14 6 -15 5 -6 -5z"/> <path d="M847 1146 c-7 -47 -4 -66 9 -54 3 3 4 28 2 54 l-3 49 -8 -49z"/> <path d="M1125 940 c3 -5 8 -10 11 -10 2 0 4 5 4 10 0 6 -5 10 -11 10 -5 0 -7 -4 -4 -10z"/> <path d="M76 3202 c-28 -44 -59 -142 -46 -142 5 0 11 -8 13 -17 2 -10 2 -2 0 17 -5 41 26 122 59 158 12 12 16 22 10 22 -7 0 -23 -17 -36 -38z"/> <path d="M2860 3205 c13 -16 56 -19 109 -9 56 12 32 24 -45 24 -67 0 -75 -2 -64 -15z"/> <path d="M210 3149 c-17 -30 -6 -34 14 -4 9 14 12 25 7 25 -6 0 -15 -9 -21 -21z"/> <path d="M2620 3146 c0 -14 209 -313 295 -422 66 -83 85 -102 85 -83 -1 15 -23 47 -62 89 -65 69 -122 144 -232 305 -75 109 -86 123 -86 111z"/> <path d="M61 3109 c-6 -18 -9 -34 -7 -36 2 -2 9 10 15 28 6 18 9 34 7 36 -2 2 -9 -10 -15 -28z"/> <path d="M57 2995 c-14 -41 -22 -75 -18 -75 8 0 55 140 48 146 -2 2 -16 -30 -30 -71z"/> <path d="M2940 3045 c14 -8 34 -14 45 -14 13 0 8 5 -15 14 -46 18 -61 18 -30 0z"/> <path d="M32 2990 c0 -14 2 -19 5 -12 2 6 2 18 0 25 -3 6 -5 1 -5 -13z"/> <path d="M57 2901 c-59 -91 -76 -131 -31 -70 34 45 96 151 91 155 -2 2 -29 -36 -60 -85z"/> <path d="M398 2983 c7 -3 16 -2 19 1 4 3 -2 6 -13 5 -11 0 -14 -3 -6 -6z"/> <path d="M2561 2972 c-1 -7 11 -36 25 -65 43 -84 82 -208 101 -319 11 -64 24 -109 35 -120 42 -42 68 -136 68 -248 0 -74 -8 -110 -20 -90 -5 8 -9 7 -13 -5 -5 -10 -3 -14 4 -9 7 4 10 1 7 -7 -3 -8 -10 -14 -16 -14 -5 0 -14 -4 -19 -9 -5 -5 -2 -6 6 -1 9 5 12 3 9 -5 -2 -8 -10 -16 -16 -18 -17 -5 -15 68 3 143 16 66 20 201 6 209 -7 4 -13 -70 -13 -144 0 -8 -6 -30 -15 -48 -15 -34 -14 -50 7 -217 10 -77 53 -231 70 -248 4 -5 16 15 26 45 16 44 19 83 19 223 -1 198 -19 291 -87 435 -22 47 -46 117 -53 157 -7 39 -23 102 -35 140 -23 74 -98 236 -99 215z m261 -897 c3 -101 1 -113 -22 -154 -14 -24 -29 -44 -35 -43 -10 1 -35 98 -28 106 18 18 63 170 64 216 1 53 1 53 10 20 5 -19 10 -84 11 -145z m-31 -228 c-10 -9 -11 -8 -5 6 3 10 9 15 12 12 3 -3 0 -11 -7 -18z"/> <path d="M2812 2020 c0 -14 2 -19 5 -12 2 6 2 18 0 25 -3 6 -5 1 -5 -13z"/> <path d="M2801 1983 c-1 -6 -4 -20 -7 -30 -5 -17 -5 -17 6 0 6 10 9 23 6 30 -3 9 -5 9 -5 0z"/> <path d="M1237 2938 c-4 -18 -18 -116 -31 -218 -26 -190 -31 -297 -20 -457 6 -106 -11 -181 -75 -318 -21 -44 -35 -87 -33 -94 3 -10 0 -12 -12 -8 -9 4 -16 1 -16 -6 0 -19 -70 -84 -115 -106 -22 -11 -32 -20 -23 -21 9 0 34 10 54 22 21 12 34 17 30 10 -4 -6 -2 -21 4 -33 16 -29 21 -19 11 18 -7 25 -6 35 8 47 10 9 21 16 24 16 4 0 7 -31 7 -70 0 -66 -1 -70 -22 -71 -13 0 -41 -7 -63 -14 l-40 -13 55 5 c30 3 59 8 64 11 5 3 6 -7 1 -24 -4 -16 -9 -40 -12 -54 -10 -55 -52 -130 -85 -150 -18 -11 -26 -20 -18 -20 43 0 95 78 135 200 10 30 23 58 29 62 7 5 5 8 -6 8 -9 0 -18 -10 -21 -23 -2 -12 -3 23 -3 78 l1 101 38 44 c20 24 62 93 92 154 l55 110 0 -48 c0 -26 5 -101 11 -166 13 -129 13 -127 -56 -235 -18 -27 -18 -29 -1 -16 29 24 82 141 102 226 20 85 23 253 6 310 -6 19 -7 -23 -4 -116 3 -97 1 -148 -6 -153 -11 -6 -23 41 -41 158 -7 49 -5 70 10 114 45 131 62 257 64 492 l3 225 -8 -205 c-11 -298 -46 -475 -130 -656 -43 -93 -99 -188 -107 -180 -3 2 7 24 20 48 52 88 119 345 98 372 -5 6 -11 57 -15 113 -5 83 0 146 24 329 17 125 29 229 26 231 -2 2 -6 -11 -9 -29z"/> <path d="M2980 2961 c0 -5 5 -13 10 -16 6 -3 10 -2 10 4 0 5 -4 13 -10 16 -5 3 -10 2 -10 -4z"/> <path d="M1 2930 c-1 -18 16 -46 23 -40 2 3 -2 16 -9 30 -8 15 -14 19 -14 10z"/> <path d="M2771 2845 c37 -55 235 -278 228 -258 -2 7 -44 59 -94 115 -109 123 -152 170 -134 143z"/> <path d="M500 2799 c-138 -122 -198 -192 -259 -300 -35 -61 -80 -148 -100 -193 -20 -45 -59 -109 -88 -144 -56 -67 -73 -101 -22 -42 17 19 64 71 104 115 54 60 74 90 79 120 27 146 95 256 236 384 55 50 97 91 92 91 -4 0 -23 -14 -42 -31z"/> <path d="M2562 2710 c17 -47 41 -128 54 -180 12 -52 23 -83 23 -69 2 54 -73 294 -100 324 -5 5 5 -29 23 -75z"/> <path d="M173 2681 c-103 -83 -184 -161 -167 -161 5 0 30 21 54 46 25 25 84 77 133 116 48 39 87 72 87 74 0 10 -16 -1 -107 -75z"/> <path d="M2474 2693 c18 -38 46 -97 61 -133 32 -77 57 -131 52 -110 -19 69 -54 166 -62 172 -5 4 -6 8 -2 8 9 0 -40 97 -60 118 -25 26 -22 9 11 -55z"/> <path d="M2770 2743 c0 -5 49 -57 109 -117 61 -61 108 -112 106 -116 -2 -3 0 -12 5 -20 7 -11 9 -8 7 10 -1 17 -38 61 -114 138 -62 63 -113 110 -113 105z"/> <path d="M2747 2674 c14 -25 27 -43 30 -40 6 6 -38 86 -48 86 -4 0 4 -20 18 -46z"/> <path d="M2200 2644 c0 -16 63 -195 67 -190 4 4 -55 187 -63 195 -2 2 -4 0 -4 -5z"/> <path d="M2770 2613 c0 -8 51 -76 64 -85 7 -5 7 -8 1 -8 -5 0 -3 -5 5 -10 10 -6 11 -10 3 -10 -7 0 -13 -7 -13 -16 0 -12 6 -15 21 -11 12 3 19 3 16 1 -2 -3 4 -15 16 -28 11 -12 21 -36 23 -52 3 -27 2 -28 -12 -10 -8 11 -14 31 -14 44 0 18 -4 23 -16 18 -9 -3 -17 -6 -19 -6 -2 0 6 -29 18 -65 12 -36 25 -65 30 -65 4 0 5 5 1 12 -4 7 -3 8 4 4 19 -11 14 2 -9 25 -11 11 -18 24 -14 27 4 4 12 -1 20 -11 11 -15 13 -16 19 -2 3 8 3 23 0 33 -2 9 1 7 7 -5 7 -13 16 -23 21 -23 4 0 8 -5 8 -11 0 -5 -4 -7 -10 -4 -6 4 -7 -1 -3 -11 5 -13 3 -15 -7 -9 -8 5 -11 4 -6 -3 3 -5 1 -12 -6 -14 -6 -2 -8 -10 -4 -16 9 -16 27 -15 24 0 -4 17 38 22 45 6 3 -9 -3 -14 -16 -15 -32 -3 -41 -27 -12 -31 28 -4 35 -32 8 -32 -15 0 -16 2 -3 10 12 8 9 10 -12 10 -18 0 -28 5 -28 15 0 8 -5 15 -11 15 -5 0 -7 5 -4 10 3 6 -1 10 -9 10 -17 0 -11 -29 8 -42 7 -5 7 -8 -2 -8 -7 0 -10 -5 -7 -10 7 -11 11 -34 19 -95 3 -22 10 -64 15 -94 15 -77 14 -205 -3 -245 -8 -19 -22 -39 -33 -45 -17 -10 -17 -10 0 -11 22 0 65 43 92 93 18 35 14 67 -5 37 -8 -12 -10 -11 -10 5 1 11 7 29 15 39 20 26 19 66 0 66 -8 0 -15 -5 -15 -12 0 -6 -2 -9 -5 -6 -3 3 -1 17 4 32 9 22 8 26 -7 26 -13 1 -10 6 11 21 15 11 27 26 27 32 0 7 -7 3 -15 -7 -15 -20 -15 -20 -15 0 0 11 -5 25 -12 32 -7 7 -8 12 -2 12 5 0 15 -5 21 -11 8 -8 13 -7 18 2 5 8 4 10 -3 5 -15 -9 -16 6 -2 22 7 8 7 9 -1 3 -6 -5 -18 -7 -25 -4 -15 6 -19 33 -5 33 5 0 7 10 3 22 -5 19 -7 17 -18 -17 l-13 -40 4 36 c4 27 1 38 -10 43 -8 3 -15 11 -14 18 0 10 2 10 6 0 2 -6 9 -10 14 -6 5 3 9 1 9 -5 0 -7 9 -7 29 0 35 12 36 41 1 50 l-25 7 28 1 c15 0 27 7 27 14 0 14 -73 124 -169 255 -50 69 -61 80 -61 65z m102 -198 c3 -13 1 -22 -3 -19 -9 5 -13 44 -5 44 2 0 6 -11 8 -25z m93 -75 c3 -5 1 -10 -4 -10 -6 0 -11 5 -11 10 0 6 2 10 4 10 3 0 8 -4 11 -10z m-5 -260 c0 -5 -5 -10 -11 -10 -5 0 -7 5 -4 10 3 6 8 10 11 10 2 0 4 -4 4 -10z m26 -137 c-10 -10 -19 5 -10 18 6 11 8 11 12 0 2 -7 1 -15 -2 -18z"/> <path d="M2760 2537 c78 -175 109 -315 109 -487 1 -178 -30 -293 -87 -325 -27 -16 -27 -16 -2 -11 21 4 30 -3 59 -45 36 -52 97 -101 141 -113 28 -7 33 -12 -58 49 -25 17 -58 49 -75 72 l-29 41 26 65 c55 138 56 364 3 547 -32 113 -72 212 -99 251 -10 13 -4 -6 12 -44z"/> <path d="M56 2520 c-57 -71 -79 -118 -28 -58 33 38 95 128 89 128 -3 0 -30 -32 -61 -70z"/> <path d="M1227 2451 c-4 -73 -6 -135 -3 -138 7 -7 18 157 14 217 -2 36 -6 8 -11 -79z"/> <path d="M141 2434 c-30 -25 -74 -57 -98 -70 -23 -14 -43 -30 -43 -36 0 -11 9 -7 85 48 52 37 127 104 114 104 -2 0 -28 -21 -58 -46z"/> <path d="M82 2345 c-11 -13 -22 -22 -26 -20 -3 3 -4 2 -2 -1 2 -3 -4 -14 -15 -25 -11 -11 -16 -25 -12 -35 4 -12 3 -15 -5 -10 -8 5 -10 1 -5 -10 3 -10 2 -15 -3 -12 -5 4 -10 -8 -11 -25 -2 -27 3 -22 35 38 21 39 46 82 56 98 23 34 14 36 -12 2z"/> <path d="M1019 2305 c-1 -38 -2 -76 -2 -82 1 -7 -3 -13 -9 -13 -5 0 -6 -6 -1 -12 4 -7 7 -35 6 -63 -2 -34 0 -44 6 -30 5 11 6 26 4 33 -9 23 14 12 57 -28 24 -22 45 -38 47 -36 7 6 -48 66 -61 66 -30 0 -50 49 -33 78 5 6 5 17 2 22 -3 6 -4 10 0 10 3 0 17 -25 30 -57 34 -75 43 -62 11 17 -14 34 -28 79 -32 99 -13 70 -23 68 -25 -4z"/> <path d="M1812 2340 c0 -19 2 -27 5 -17 2 9 2 25 0 35 -3 9 -5 1 -5 -18z"/> <path d="M1596 2303 c-3 -21 -9 -114 -13 -208 -5 -138 -9 -172 -22 -182 -9 -7 -11 -13 -5 -13 24 0 38 32 35 83 -1 29 3 119 9 201 11 145 9 194 -4 119z"/> <path d="M1152 2233 c-7 -54 -12 -109 -11 -123 0 -22 2 -21 13 10 12 31 23 210 13 210 -1 0 -8 -44 -15 -97z"/> <path d="M1752 2280 c0 -14 2 -19 5 -12 2 6 2 18 0 25 -3 6 -5 1 -5 -13z"/> <path d="M1984 2288 c18 -56 27 -102 22 -113 -3 -8 2 -19 10 -26 8 -7 20 -22 26 -33 8 -16 3 -14 -21 9 -17 16 -29 35 -27 42 3 7 1 13 -4 13 -5 0 -12 -11 -16 -24 -7 -28 18 -83 50 -108 24 -20 76 -24 76 -5 0 6 8 -1 18 -18 19 -31 52 -63 52 -51 0 4 -24 38 -54 75 -35 43 -66 98 -85 147 -28 72 -62 138 -47 92z m50 -124 c3 -8 2 -12 -4 -9 -6 3 -10 10 -10 16 0 14 7 11 14 -7z m31 -94 c3 -5 2 -10 -4 -10 -5 0 -13 5 -16 10 -3 6 -2 10 4 10 5 0 13 -4 16 -10z"/> <path d="M1827 2250 c7 -58 10 -60 15 -11 2 21 0 37 -3 35 -4 -2 -10 2 -13 8 -3 7 -2 -7 1 -32z"/> <path d="M1535 2210 c-3 -5 1 -10 9 -10 9 0 16 5 16 10 0 6 -4 10 -9 10 -6 0 -13 -4 -16 -10z"/> <path d="M2981 2210 c-8 -5 -11 -15 -7 -26 4 -10 1 -21 -6 -26 -10 -7 -10 -9 1 -6 8 3 18 17 23 33 9 34 7 37 -11 25z"/> <path d="M1344 2191 c4 -6 16 -16 28 -22 15 -8 18 -8 14 0 -4 6 -16 16 -28 22 -15 8 -18 8 -14 0z"/> <path d="M801 2174 c0 -11 3 -14 6 -6 3 7 2 16 -1 19 -3 4 -6 -2 -5 -13z"/> <path d="M2210 2178 c0 -3 9 -27 20 -52 10 -25 17 -54 14 -64 -5 -14 -4 -15 5 -2 9 12 11 6 7 -25 -4 -27 -3 -32 2 -15 7 22 10 17 26 -38 10 -35 19 -62 22 -60 2 3 -4 31 -13 64 -9 32 -17 69 -17 81 -1 11 -5 19 -10 16 -4 -3 -5 5 -1 18 5 20 4 21 -5 9 -10 -12 -11 -11 -7 8 3 12 1 20 -4 16 -5 -3 -9 -1 -9 3 0 11 -29 51 -30 41z"/> <path d="M2317 2153 c-16 -15 -5 -90 28 -187 55 -165 48 -281 -25 -426 -22 -44 -22 -45 -1 -23 11 12 21 25 21 28 0 4 7 13 15 21 8 9 15 12 15 7 0 -5 -5 -14 -12 -21 -14 -14 -2 -15 27 -2 11 5 15 9 10 9 -6 1 -11 13 -12 29 0 15 1 19 4 9 2 -9 9 -15 14 -12 5 4 9 -5 9 -18 0 -21 -7 -27 -37 -34 -31 -7 -37 -13 -35 -30 2 -12 -13 -60 -33 -108 -19 -47 -33 -90 -30 -96 4 -5 2 -9 -3 -9 -28 0 -68 -189 -44 -204 5 -3 9 21 9 53 1 69 0 67 102 211 44 62 83 127 87 145 3 18 -1 66 -10 106 -8 41 -18 120 -21 177 -5 77 -14 125 -37 190 -16 48 -31 111 -31 139 -1 29 -2 53 -3 53 0 0 -4 -3 -7 -7z m103 -638 c0 -8 -5 -15 -11 -15 -5 0 -8 -4 -5 -9 3 -4 -8 -28 -24 -52 -16 -24 -44 -66 -61 -92 -17 -26 -34 -46 -37 -43 -2 3 3 17 12 31 9 14 14 25 11 25 -3 0 1 14 10 30 9 17 23 30 33 30 15 0 15 2 2 10 -13 8 -12 10 5 11 17 1 17 2 3 6 -14 4 -16 8 -8 24 6 11 8 24 5 29 -7 11 23 29 48 30 9 0 17 -7 17 -15z"/> <path d="M2385 1510 c-3 -6 1 -7 9 -4 18 7 21 14 7 14 -6 0 -13 -4 -16 -10z"/> <path d="M2368 1463 c7 -3 16 -2 19 1 4 3 -2 6 -13 5 -11 0 -14 -3 -6 -6z"/> <path d="M791 2134 c0 -11 3 -14 6 -6 3 7 2 16 -1 19 -3 4 -6 -2 -5 -13z"/> <path d="M1478 2133 c6 -2 18 -2 25 0 6 3 1 5 -13 5 -14 0 -19 -2 -12 -5z"/> <path d="M21 2051 c-12 -22 -21 -46 -21 -53 0 -7 12 9 26 36 14 26 23 50 20 53 -2 3 -14 -13 -25 -36z"/> <path d="M1031 1990 c5 -23 9 -47 8 -53 -3 -28 2 -48 11 -42 6 3 8 16 5 28 -3 12 -7 40 -9 62 -2 21 -8 41 -14 43 -7 2 -7 -11 -1 -38z"/> <path d="M2991 2014 c0 -11 3 -14 6 -6 3 7 2 16 -1 19 -3 4 -6 -2 -5 -13z"/> <path d="M1200 1984 c0 -29 30 -166 40 -183 14 -24 12 -4 -11 99 -20 95 -29 120 -29 84z"/> <path d="M860 1855 c0 -8 9 -15 20 -15 13 0 18 5 14 15 -4 8 -12 15 -20 15 -8 0 -14 -7 -14 -15z"/> <path d="M344 1805 c-7 -19 -14 -37 -14 -41 0 -4 -18 -52 -40 -107 -22 -55 -39 -102 -37 -104 7 -6 70 139 93 214 24 77 23 97 -2 38z"/> <path d="M968 1804 c3 -24 8 -32 14 -26 11 11 3 62 -10 62 -4 0 -6 -16 -4 -36z"/> <path d="M2301 1824 c0 -11 3 -14 6 -6 3 7 2 16 -1 19 -3 4 -6 -2 -5 -13z"/> <path d="M2027 1800 c10 -17 19 -26 21 -21 5 14 -17 51 -29 51 -6 0 -2 -14 8 -30z"/> <path d="M860 1813 c0 -16 16 -30 38 -35 12 -4 20 -2 16 3 -3 5 -12 9 -20 9 -20 0 -18 18 4 23 10 3 6 5 -10 6 -16 0 -28 -2 -28 -6z"/> <path d="M1655 1800 c-3 -5 -1 -10 4 -10 6 0 11 5 11 10 0 6 -2 10 -4 10 -3 0 -8 -4 -11 -10z"/> <path d="M2981 1790 c-6 -40 -10 -59 -20 -109 -14 -69 -15 -92 -1 -71 13 20 32 144 27 172 -2 13 -5 16 -6 8z"/> <path d="M1940 1780 c0 -5 13 -10 29 -10 17 0 33 5 36 10 4 6 -8 10 -29 10 -20 0 -36 -4 -36 -10z"/> <path d="M2121 1760 c0 -14 6 -64 14 -113 12 -68 13 -92 4 -110 -28 -51 -65 -90 -111 -113 l-48 -24 36 46 c43 57 94 157 93 181 0 11 -5 7 -12 -12 -18 -46 -44 -90 -61 -104 -9 -7 -13 -17 -11 -22 3 -4 -11 -27 -32 -50 -35 -39 -40 -41 -80 -35 -51 7 -57 0 -11 -12 31 -8 32 -10 44 -88 6 -43 22 -106 35 -138 19 -48 30 -62 57 -73 17 -7 32 -9 32 -4 0 5 -11 12 -25 15 -14 4 -31 17 -36 30 -10 21 -6 31 31 77 52 67 72 106 100 198 20 63 22 87 16 165 -6 92 -33 233 -35 186z m19 -305 c-6 -30 -17 -61 -24 -68 -7 -7 -11 -17 -9 -24 2 -6 -3 -27 -13 -45 -22 -44 -92 -138 -103 -138 -8 0 -41 154 -41 193 0 10 8 17 20 17 49 0 128 53 156 105 24 45 29 31 14 -40z"/> <path d="M2069 1402 c-14 -15 -37 -35 -50 -45 -23 -17 -22 -17 9 0 35 19 92 73 76 73 -5 -1 -21 -13 -35 -28z"/> <path d="M2026 1253 c-6 -14 -5 -15 5 -6 7 7 10 15 7 18 -3 3 -9 -2 -12 -12z"/> <path d="M1851 1752 c-1 -13 -5 -20 -11 -17 -13 8 -13 2 2 -30 23 -50 37 -15 18 45 -8 25 -8 25 -9 2z"/> <path d="M35 1689 c-9 -40 -18 -118 -21 -173 -3 -56 -6 -119 -8 -141 -2 -22 -2 -34 1 -27 3 6 9 10 14 6 6 -3 7 16 3 49 -7 56 9 229 28 305 6 23 8 45 5 48 -3 3 -12 -27 -22 -67z"/> <path d="M885 1750 c3 -5 13 -10 21 -10 8 0 12 5 9 10 -3 6 -13 10 -21 10 -8 0 -12 -4 -9 -10z"/> <path d="M1978 1753 c7 -3 16 -2 19 1 4 3 -2 6 -13 5 -11 0 -14 -3 -6 -6z"/> <path d="M2720 1739 c0 -9 13 -34 29 -55 15 -22 36 -56 46 -77 37 -78 138 -166 193 -167 24 0 3 17 -27 23 -37 8 -92 56 -134 116 l-31 46 40 -32 c22 -17 52 -37 67 -44 21 -10 24 -15 15 -26 -6 -7 -8 -16 -5 -20 4 -3 9 2 13 11 5 13 14 15 43 11 31 -5 29 -3 -20 18 -31 13 -69 33 -85 44 -42 31 -109 103 -127 138 -9 17 -16 23 -17 14z"/> <path d="M476 1725 c-3 -9 -6 -24 -5 -33 0 -9 5 -4 10 12 9 32 6 48 -5 21z"/> <path d="M1551 1729 c-2 -29 60 -138 90 -159 16 -12 29 -17 29 -12 0 5 -11 14 -24 20 -21 9 -43 47 -84 142 -6 15 -11 19 -11 9z"/> <path d="M1948 1733 c7 -3 16 -2 19 1 4 3 -2 6 -13 5 -11 0 -14 -3 -6 -6z"/> <path d="M534 1697 c-14 -16 -59 -155 -73 -225 -18 -90 -10 -102 9 -14 11 45 34 120 53 167 33 81 35 100 11 72z"/> <path d="M936 1685 c4 -8 8 -15 10 -15 2 0 4 7 4 15 0 8 -4 15 -10 15 -5 0 -7 -7 -4 -15z"/> <path d="M1290 1681 c13 -25 13 -34 0 -26 -16 10 -11 -6 16 -55 14 -25 22 -34 18 -20 -3 14 -10 29 -15 35 -13 13 -11 38 2 29 6 -3 3 8 -5 25 -9 17 -19 31 -22 31 -2 0 0 -9 6 -19z"/> <path d="M1522 1664 c10 -10 20 -15 24 -12 3 4 -5 12 -18 18 -22 12 -22 12 -6 -6z"/> <path d="M1480 1655 c-7 -9 -10 -18 -7 -21 3 -3 10 4 17 15 13 25 8 27 -10 6z"/> <path d="M1945 1660 c3 -5 12 -7 20 -3 21 7 19 13 -6 13 -11 0 -18 -4 -14 -10z"/> <path d="M2105 1660 c-3 -5 -1 -10 4 -10 6 0 11 5 11 10 0 6 -2 10 -4 10 -3 0 -8 -4 -11 -10z"/> <path d="M1251 1638 c-1 -15 4 -30 9 -33 6 -4 8 -15 5 -26 -4 -10 -3 -19 2 -19 5 0 17 -14 27 -31 28 -47 29 -29 3 32 -13 30 -29 65 -35 79 l-11 25 0 -27z"/> <path d="M843 1638 c-13 -6 -23 -15 -23 -19 0 -4 12 -1 28 7 32 17 56 18 46 3 -4 -8 -1 -8 12 -1 11 5 26 11 34 14 8 3 -5 5 -30 6 -25 0 -55 -5 -67 -10z"/> <path d="M938 1603 c6 -2 18 -2 25 0 6 3 1 5 -13 5 -14 0 -19 -2 -12 -5z"/> <path d="M1835 1602 c6 -6 30 -13 55 -16 37 -5 40 -4 15 3 -74 23 -80 24 -70 13z"/> <path d="M1760 1591 c-8 -6 -18 -7 -22 -5 -4 3 -8 0 -8 -6 0 -11 49 -3 65 11 12 12 -16 11 -35 0z"/> <path d="M1075 1580 c-4 -6 5 -10 19 -10 14 0 26 5 26 10 0 6 -9 10 -19 10 -11 0 -23 -4 -26 -10z"/> <path d="M975 1570 c-20 -9 -20 -9 0 -9 11 0 27 4 35 9 13 9 13 10 0 9 -8 0 -24 -4 -35 -9z"/> <path d="M1078 1543 c7 -3 16 -2 19 1 4 3 -2 6 -13 5 -11 0 -14 -3 -6 -6z"/> <path d="M1119 1538 c-8 -7 -21 -31 -28 -53 -7 -22 -20 -48 -29 -57 -8 -10 -11 -18 -6 -18 12 0 84 108 84 126 0 17 -2 17 -21 2z"/> <path d="M941 1483 c-17 -20 -31 -41 -31 -47 1 -6 12 2 25 19 13 16 34 37 47 47 18 14 19 18 7 18 -9 0 -31 -16 -48 -37z"/> <path d="M2473 1280 c-92 -183 -136 -301 -119 -317 6 -7 9 -1 31 82 9 33 57 141 107 241 50 99 89 185 87 190 -2 5 -50 -83 -106 -196z"/> <path d="M1120 1395 c-17 -30 -39 -59 -48 -65 -15 -9 -15 -12 7 -30 13 -11 28 -20 35 -20 6 0 3 7 -7 14 -17 14 -17 17 10 68 33 62 44 88 38 88 -2 0 -18 -25 -35 -55z"/> <path d="M631 1388 c-1 -32 3 -58 8 -58 5 0 6 21 4 48 -7 70 -11 74 -12 10z"/> <path d="M52 1400 c0 -19 2 -27 5 -17 2 9 2 25 0 35 -3 9 -5 1 -5 -18z"/> <path d="M2866 1355 c4 -33 8 -62 10 -64 9 -10 3 96 -6 109 -7 10 -8 -4 -4 -45z"/> <path d="M2957 1338 c-21 -27 -49 -54 -62 -60 -14 -6 -25 -15 -25 -20 0 -15 15 -8 48 23 17 16 32 27 32 24 0 -13 -56 -75 -67 -75 -7 0 -13 -4 -13 -10 0 -34 62 24 106 98 37 63 25 76 -19 20z"/> <path d="M1725 1347 c10 -15 21 -61 26 -105 l8 -77 -3 83 c-2 72 -6 86 -26 105 l-22 22 17 -28z"/> <path d="M1038 1287 c-4 -18 -1 -24 9 -20 15 6 16 13 4 31 -6 10 -10 7 -13 -11z"/> <path d="M2577 1218 c-23 -78 -20 -97 3 -23 11 33 18 65 16 70 -1 6 -10 -15 -19 -47z"/> <path d="M531 1234 c0 -11 3 -14 6 -6 3 7 2 16 -1 19 -3 4 -6 -2 -5 -13z"/> <path d="M2540 1179 c-6 -24 -17 -70 -26 -102 -9 -33 -13 -61 -11 -64 3 -2 8 10 12 28 5 24 9 28 16 18 6 -9 7 -4 3 15 -5 20 -4 27 4 22 7 -4 10 -2 7 6 -3 7 -1 36 4 63 12 63 6 72 -9 14z"/> <path d="M2716 1097 c-5 -48 -6 -90 -3 -93 7 -7 20 138 15 162 -3 10 -8 -21 -12 -69z"/> <path d="M2030 1151 c0 -11 4 -22 9 -25 4 -3 6 6 3 19 -5 30 -12 33 -12 6z"/> <path d="M1200 1152 c0 -4 47 -29 105 -55 83 -37 117 -47 158 -47 29 0 58 4 66 9 9 6 -7 7 -45 4 -49 -4 -69 -1 -116 20 -32 14 -58 27 -58 29 0 2 39 2 87 1 l88 -1 -110 9 c-60 5 -122 16 -139 24 -34 17 -36 18 -36 7z"/> <path d="M1710 1144 c-19 -7 -55 -14 -80 -14 -25 -1 -67 -6 -95 -10 -39 -7 -31 -8 38 -4 48 3 87 3 87 0 0 -2 -24 -12 -52 -22 -29 -9 -48 -19 -41 -21 12 -4 171 62 188 78 12 12 -1 10 -45 -7z"/> <path d="M2260 1082 c0 -13 -4 -20 -10 -17 -6 4 -7 -5 -4 -23 4 -22 -1 -42 -20 -74 -36 -61 -33 -73 4 -18 16 25 30 56 30 71 0 14 5 30 11 36 8 8 8 16 0 30 -10 17 -10 16 -11 -5z"/> <path d="M1800 1017 c0 -7 -8 -23 -17 -37 -9 -13 -18 -31 -19 -40 -1 -8 -5 -24 -8 -35 -57 -206 -73 -280 -79 -355 -4 -46 -3 -65 3 -50 4 14 8 46 9 72 1 51 87 362 114 415 20 37 21 43 7 43 -5 0 -10 -6 -10 -13z"/> <path d="M710 1012 c0 -17 -60 -70 -129 -115 -23 -16 -40 -31 -38 -34 6 -5 88 47 125 81 34 30 65 76 53 76 -6 0 -11 -4 -11 -8z"/> <path d="M756 960 c5 -79 21 -140 36 -140 13 0 2 130 -12 144 -5 5 -6 -1 -3 -15 3 -13 2 -21 -2 -16 -5 4 -12 26 -16 50 -6 32 -7 27 -3 -23z"/> <path d="M85 1000 c-3 -5 1 -10 10 -10 9 0 13 5 10 10 -3 6 -8 10 -10 10 -2 0 -7 -4 -10 -10z"/> <path d="M2070 981 c0 -19 -19 -55 -55 -106 -31 -43 -54 -79 -52 -82 3 -2 30 31 61 74 41 56 56 86 56 110 0 18 -2 33 -5 33 -3 0 -5 -13 -5 -29z"/> <path d="M220 859 c-30 -50 -90 -138 -135 -197 -49 -65 -81 -116 -81 -131 0 -22 4 -20 39 20 56 65 182 230 197 259 18 35 2 17 -62 -70 -73 -101 -159 -203 -165 -197 -2 3 22 38 55 79 72 90 150 206 186 276 14 28 25 52 23 52 -2 0 -28 -41 -57 -91z"/> <path d="M2323 938 c-23 -30 -24 -41 -2 -21 12 12 20 25 17 28 -3 3 -10 0 -15 -7z"/> <path d="M682 850 c-28 -50 -47 -88 -42 -85 11 7 69 105 87 148 24 53 4 26 -45 -63z"/> <path d="M686 913 c-6 -14 -5 -15 5 -6 7 7 10 15 7 18 -3 3 -9 -2 -12 -12z"/> <path d="M499 854 c-17 -18 -19 -23 -6 -18 9 3 17 10 17 16 0 5 4 7 8 4 5 -3 9 1 9 9 0 19 1 19 -28 -11z"/> <path d="M652 853 c-6 -10 -13 -16 -15 -13 -2 3 -33 -21 -69 -53 -36 -32 -74 -64 -84 -72 -11 -8 -15 -15 -10 -15 5 0 44 32 88 71 82 74 95 78 53 16 -14 -20 -23 -37 -20 -37 9 0 77 111 72 117 -3 2 -10 -4 -15 -14z"/> <path d="M831 854 c0 -11 3 -14 6 -6 3 7 2 16 -1 19 -3 4 -6 -2 -5 -13z"/> <path d="M309 788 c-17 -35 -42 -78 -56 -96 -14 -18 -23 -36 -20 -38 6 -7 35 35 85 124 23 39 37 72 32 72 -6 0 -24 -28 -41 -62z"/> <path d="M2975 780 c-11 -24 -43 -80 -72 -124 -30 -46 -39 -66 -22 -46 16 19 35 35 42 35 13 0 77 90 77 109 0 6 -17 -15 -36 -47 -51 -82 -54 -63 -4 23 23 39 40 76 38 82 -2 6 -13 -9 -23 -32z"/> <path d="M2782 638 c-72 -74 -107 -115 -204 -238 -15 -19 -27 -30 -28 -25 0 6 36 58 80 115 44 58 64 87 44 65 -53 -58 -164 -209 -213 -290 -48 -80 -135 -255 -129 -261 3 -2 32 51 66 119 65 130 140 253 148 244 3 -3 -10 -29 -29 -58 -34 -53 -130 -239 -148 -286 -7 -20 -6 -24 6 -21 9 2 31 36 49 76 19 41 38 78 43 83 4 4 26 11 48 14 95 14 146 33 180 65 33 31 17 50 -44 50 l-46 0 59 53 c33 28 74 66 92 82 221 207 244 231 244 252 0 21 -4 19 -36 -17 -20 -22 -40 -37 -45 -34 -5 3 -8 2 -7 -3 4 -12 -70 -85 -212 -209 -131 -114 -200 -169 -200 -159 0 11 96 148 151 216 30 37 92 108 138 158 46 50 81 91 79 91 -3 0 -41 -37 -86 -82z m-90 -380 c-15 -15 -134 -48 -171 -48 -31 0 -39 4 -37 17 2 9 11 18 21 19 10 1 21 6 26 11 4 4 44 8 88 8 44 0 77 -3 73 -7z"/> <path d="M439 673 c-13 -16 -12 -17 4 -4 16 13 21 21 13 21 -2 0 -10 -8 -17 -17z"/> <path d="M399 643 c-13 -16 -12 -17 4 -4 16 13 21 21 13 21 -2 0 -10 -8 -17 -17z"/> <path d="M1442 630 c0 -19 2 -27 5 -17 2 9 2 25 0 35 -3 9 -5 1 -5 -18z"/> <path d="M2972 575 c-12 -15 -22 -34 -22 -41 0 -8 -4 -14 -9 -14 -5 0 -25 -33 -44 -72 -20 -40 -46 -81 -57 -91 -12 -10 -19 -25 -16 -33 3 -8 -4 -34 -16 -57 -12 -23 -34 -78 -49 -122 l-28 -80 -39 0 c-41 0 -82 -26 -82 -52 0 -10 9 -8 33 9 44 32 56 32 69 3 6 -14 15 -24 20 -23 5 2 24 49 43 104 49 146 117 283 175 350 60 71 67 94 9 33 -36 -38 -38 -39 -17 -9 35 50 60 100 56 112 -2 6 -14 -1 -26 -17z m-130 -247 c-7 -7 -12 -8 -12 -2 0 14 12 26 19 19 2 -3 -1 -11 -7 -17z"/> <path d="M519 519 l-24 -21 28 16 c15 9 33 14 39 10 7 -4 8 -3 4 4 -10 17 -21 15 -47 -9z"/> <path d="M1676 445 c4 -16 11 -32 16 -34 16 -6 30 -54 34 -124 6 -90 31 -218 45 -231 9 -8 10 -8 5 1 -13 23 -36 178 -36 241 0 50 -5 71 -22 95 -12 17 -23 38 -25 45 -1 8 -7 20 -13 26 -9 8 -10 3 -4 -19z"/> <path d="M2979 431 c-34 -34 -88 -120 -123 -196 -21 -44 -43 -91 -50 -105 -18 -35 -40 -119 -33 -126 9 -9 27 6 27 22 0 19 85 217 113 263 18 30 21 32 30 15 6 -11 15 -22 21 -26 15 -10 36 11 36 35 0 20 0 20 -15 1 -18 -23 -20 -11 -3 19 14 25 18 68 6 61 -12 -8 -10 10 3 23 6 6 10 15 8 21 -2 5 -11 2 -20 -7z m-5 -96 c-21 -32 -24 -32 -19 5 5 42 16 56 27 37 6 -11 3 -25 -8 -42z"/> <path d="M479 403 c26 -36 97 -114 80 -88 -7 11 -28 37 -46 58 -18 20 -33 42 -33 47 0 6 -5 10 -11 10 -6 0 -1 -12 10 -27z"/> <path d="M580 290 c-13 -8 -13 -10 2 -10 9 0 20 5 23 10 8 13 -5 13 -25 0z"/> <path d="M720 268 c-34 -54 -133 -259 -128 -264 3 -2 39 63 81 146 72 143 91 189 47 118z"/> <path d="M1562 243 c-19 -52 -21 -63 -13 -63 8 0 33 81 27 87 -2 2 -8 -9 -14 -24z"/> <path d="M636 245 c-13 -10 -16 -19 -10 -25 5 -5 13 0 21 16 6 13 10 24 10 24 -1 0 -11 -7 -21 -15z"/> <path d="M410 156 c-63 -40 -142 -91 -174 -114 -58 -41 -59 -42 -28 -42 23 0 37 8 54 31 13 17 80 66 150 110 71 45 128 83 128 85 0 10 -22 -2 -130 -70z"/> <path d="M959 193 c-13 -16 -12 -17 4 -4 16 13 21 21 13 21 -2 0 -10 -8 -17 -17z"/> <path d="M950 109 c-140 -91 -152 -100 -146 -106 8 -8 66 17 104 45 27 21 32 22 32 8 0 -10 -5 -26 -10 -37 -8 -14 -7 -19 3 -19 7 0 28 26 47 57 19 32 46 70 59 86 13 15 22 29 20 31 -2 2 -51 -27 -109 -65z"/> <path d="M929 153 c-13 -16 -12 -17 4 -4 16 13 21 21 13 21 -2 0 -10 -8 -17 -17z"/> <path d="M2948 113 c-29 -42 -58 -95 -58 -108 0 -3 4 -5 9 -5 9 0 101 140 101 153 0 19 -22 2 -52 -40z"/> <path d="M884 98 l-29 -33 33 29 c17 17 32 31 32 33 0 8 -8 1 -36 -29z"/> <path d="M1204 124 c3 -7 -5 -37 -19 -68 -20 -45 -22 -56 -10 -56 8 0 21 16 30 36 17 42 34 41 54 -4 8 -18 21 -32 28 -32 25 0 4 42 -44 90 -25 25 -43 40 -39 34z"/> <path d="M415 110 c3 -5 8 -10 11 -10 2 0 4 5 4 10 0 6 -5 10 -11 10 -5 0 -7 -4 -4 -10z"/> <path d="M2968 50 c-20 -35 -24 -50 -15 -50 17 0 50 60 46 82 -3 12 -13 1 -31 -32z"/> <path d="M160 20 c-19 -11 -31 -19 -27 -20 11 0 67 29 67 35 0 7 -1 7 -40 -15z"/> <path d="M984 18 l-19 -23 23 19 c21 18 27 26 19 26 -2 0 -12 -10 -23 -22z"/> <path d="M2650 15 c-7 -8 -8 -15 -2 -15 5 0 15 7 22 15 7 8 8 15 2 15 -5 0 -15 -7 -22 -15z"/> </g> </svg> 